<svg id="anatomi" xmlns="http://www.w3.org/2000/svg" width="32.961" height="47.492" viewBox="0 0 32.961 47.492">
  <path id="Path_17480" data-name="Path 17480" d="M138.25,331.5h1.393v16.713H138.25Zm20.427,6.5h1.393v10.213h-1.393Zm0-6.5h1.393v5.107h-1.393Z" transform="translate(-132.679 -300.721)" fill="#30d5c8"/>
  <path id="Path_17481" data-name="Path 17481" d="M91.991,16.256H90.555a1.538,1.538,0,0,1-1.54-1.411l-.271-3.094-1.912-.431a.053.053,0,0,1-.04-.05.048.048,0,0,1,.005-.021l1.77-3.786V7.308a6.128,6.128,0,0,1,6.308-5.915A6.5,6.5,0,0,1,98.829,2.7l.839-1.111A7.883,7.883,0,0,0,94.875,0a7.531,7.531,0,0,0-7.7,7.149l-1.641,3.51a1.443,1.443,0,0,0,.991,2.02l.919.207.182,2.081a2.923,2.923,0,0,0,2.927,2.682H90.6v2.287l-8.369,2.2A5.342,5.342,0,0,0,78.25,27.3V39.978h1.393V27.3a3.949,3.949,0,0,1,2.942-3.816l9.407-2.476Zm15.239,5.882-8.369-2.2v-3.38l1.567-2A9.747,9.747,0,0,0,102.576,8.5V7.308a7.094,7.094,0,0,0-1.786-4.68l-1.046.92a5.7,5.7,0,0,1,1.439,3.76V8.5a8.355,8.355,0,0,1-1.846,5.191L97.47,16.076V21.01l9.407,2.476a3.949,3.949,0,0,1,2.942,3.816v.228h1.393V27.3A5.342,5.342,0,0,0,107.231,22.139Zm2.587,6.784h1.393v18.57h-1.393ZM78.25,41.37h1.393v6.122H78.25Z" transform="translate(-78.25 0)" fill="#58c5c7"/>
  <path id="Path_17482" data-name="Path 17482" d="M188.708,37.327c1.583-.047,4.178-.377,4.178-2.669a4.88,4.88,0,0,0-9.749,0c0,2.292,2.595,2.621,4.178,2.669V52.208a14.438,14.438,0,0,0-4.413.929l.494,1.3a13.056,13.056,0,0,1,3.92-.837v3.442a11.278,11.278,0,0,0-6.237,2.539l.868,1.089a9.893,9.893,0,0,1,5.369-2.239V61.7a8,8,0,0,0-4.4,1.986l.907,1.057a6.661,6.661,0,0,1,3.493-1.642v3.256a5.161,5.161,0,0,0-2.542,1.228l.907,1.057a3.894,3.894,0,0,1,1.636-.871v2.756h1.393V67.772a3.894,3.894,0,0,1,1.636.871l.907-1.057a5.161,5.161,0,0,0-2.542-1.228V63.1a6.661,6.661,0,0,1,3.493,1.642l.907-1.057a8,8,0,0,0-4.4-1.986V58.435a9.893,9.893,0,0,1,5.369,2.239l.868-1.089a11.277,11.277,0,0,0-6.237-2.539V53.6a13.8,13.8,0,0,1,7.255,2.636l.81-1.133a15.164,15.164,0,0,0-8.065-2.9V37.327Zm-.7-1.384c-3.482,0-3.482-.9-3.482-1.284a3.489,3.489,0,0,1,6.964,0C191.493,35.042,191.493,35.942,188.011,35.942Z" transform="translate(-171.531 -27.215)" fill="#e8cf75"/>
  <path id="Path_17483" data-name="Path 17483" d="M163.7,285.454a16.572,16.572,0,0,0-2.315,1.387l.81,1.133a15.163,15.163,0,0,1,2.12-1.271Zm5.75,18.2h1.393v1.393h-1.393Z" transform="translate(-153.67 -258.95)" fill="#30d5c8"/>
</svg>
