<svg id="behdashti" xmlns="http://www.w3.org/2000/svg" width="44.817" height="44.845" viewBox="0 0 44.817 44.845">
  <g id="Layer_3" data-name="Layer 3" transform="translate(0 0)">
    <path id="Path_14624" data-name="Path 14624" d="M82.373,40.2c0,5.2,2.256,9.279,5.136,9.279S92.646,45.4,92.646,40.2,90.39,30.92,87.509,30.92,82.373,35,82.373,40.2Zm9.048,0c0,4.366-1.791,8.053-3.911,8.053S83.6,44.564,83.6,40.2s1.791-8.053,3.911-8.053S91.421,35.833,91.421,40.2Z" transform="translate(-53.528 -20.08)" fill="#e8cf75"/>
    <path id="Path_14625" data-name="Path 14625" d="M44.195-.04H23.75a.613.613,0,0,0-.613.613V3.619c0,.011,0,.021,0,.032a.075.075,0,0,0,0,.028l1.8,18.179h-.721v-.592a3.069,3.069,0,0,0-2.472-3.008A11.853,11.853,0,0,0,19.5,11.837L17.98,9.746a.609.609,0,0,0-.487-.252A.577.577,0,0,0,17,9.732L15.179,12.11a6.262,6.262,0,0,1-4.94,2.437,4.272,4.272,0,0,0-4.23,3.708,3.066,3.066,0,0,0-2.5,3.011v.592H2.69a.613.613,0,0,0-.613.613V26.5H.6a.611.611,0,0,0-.613.613v6.908A17.188,17.188,0,0,0,3.621,44.567a.609.609,0,0,0,.483.238h19.52a.609.609,0,0,0,.483-.238,17.126,17.126,0,0,0,2.286-3.911v2.108a2.016,2.016,0,0,0,2.013,2.013H39.475a2.014,2.014,0,0,0,2.013-2.013V36.8a.569.569,0,0,0,.06-.2L44.8,3.678V3.65c0-.011,0-.021,0-.032V.573a.613.613,0,0,0-.613-.613ZM4.738,21.266a1.844,1.844,0,0,1,1.845-1.838h5.193a.613.613,0,0,0,0-1.225H7.259a3.046,3.046,0,0,1,2.98-2.43,7.489,7.489,0,0,0,5.91-2.917l1.324-1.723L18.5,12.558A10.574,10.574,0,0,1,20.508,18.2H19.325a.613.613,0,1,0,0,1.225h1.7a.344.344,0,0,0,.06-.007.306.306,0,0,0,.056.007h.011a1.842,1.842,0,0,1,1.838,1.838v.592H4.738ZM3.3,25.4h7.454a.613.613,0,1,0,0-1.225H3.3v-1.1H24.426v1.1H16.972a.613.613,0,0,0,0,1.225h7.454v1.1H3.3Zm23.211,8.62c0,.319-.014.644-.035.97,0,.046,0,.095-.007.14-.025.319-.056.637-.1.956A15.975,15.975,0,0,1,23.32,43.58H4.405a15.986,15.986,0,0,1-3.19-9.555v-6.3h25.3Zm13.75,8.739a.789.789,0,0,1-.788.788H28.407a.789.789,0,0,1-.788-.788V39.557H40.263Zm0-4.433H27.619v-1.18H40.263Zm.119-2.405H27.63l.011-.123c.025-.235.046-.469.06-.7,0-.07.011-.14.014-.21.014-.287.025-.578.025-.865V27.117a.611.611,0,0,0-.613-.613h-.5l-2.2-22.272H43.519Zm3.2-32.92H24.363V1.185H43.582Z" transform="translate(0.01 0.04)" fill="#58c5c7"/>
    <path id="Path_14626" data-name="Path 14626" d="M34.943,67.245a.613.613,0,0,0-.613-.613,5.405,5.405,0,0,0-2.568.641,4.51,4.51,0,0,0-1.97-2.349.612.612,0,0,0-.614,0,4.508,4.508,0,0,0-1.969,2.349,5.405,5.405,0,0,0-2.568-.641.613.613,0,0,0-.613.613v.082a5.425,5.425,0,0,0,1.183,3.382,3.4,3.4,0,0,0-1.1,1.155.613.613,0,0,0,0,.614,3.405,3.405,0,0,0,5.374.69,3.4,3.4,0,0,0,5.374-.69.612.612,0,0,0,0-.613,3.4,3.4,0,0,0-1.1-1.155,5.427,5.427,0,0,0,1.183-3.382ZM32.03,68.538a4.17,4.17,0,0,1,1.648-.63,4.272,4.272,0,0,1-2.244,3.174c.066-.035.121-.245.151-.308a5.331,5.331,0,0,0,.238-.6,4.493,4.493,0,0,0,.207-1.638Zm-2.545-2.353a3.264,3.264,0,0,1,0,5.248,3.264,3.264,0,0,1,0-5.248Zm-2.543,2.353a4.451,4.451,0,0,0,.2,1.626,4.349,4.349,0,0,0,.26.637,2.817,2.817,0,0,1,.13.277,4.272,4.272,0,0,1-2.241-3.171A4.174,4.174,0,0,1,26.942,68.538Zm.121,4.418a2.193,2.193,0,0,1-1.677-.786,2.18,2.18,0,0,1,.716-.56,5.527,5.527,0,0,0,2.1,1.023,2.183,2.183,0,0,1-1.141.323Zm4.843,0a2.18,2.18,0,0,1-1.142-.325,5.525,5.525,0,0,0,2.1-1.023,2.176,2.176,0,0,1,.716.56,2.192,2.192,0,0,1-1.677.788Zm.777-20.9h-1.23a.613.613,0,0,0,0,1.225h1.23a.613.613,0,1,0,0-1.225Z" transform="translate(-15.612 -33.818)" fill="#e8cf75"/>
  </g>
</svg>
