<svg xmlns="http://www.w3.org/2000/svg" width="47.454" height="45.086" viewBox="0 0 47.454 45.086">
  <g id="Group_3" data-name="Group 3" transform="translate(0)">
    <path id="Path_14620" data-name="Path 14620" d="M24.147,0A31.038,31.038,0,0,0,2.206,8.959a.791.791,0,1,0,1.17,1.065,29.776,29.776,0,0,1,41.543,0,.791.791,0,1,0,1.17-1.065A31.038,31.038,0,0,0,24.147,0ZM19.4,19.774a4.746,4.746,0,1,0,4.746-4.746A4.746,4.746,0,0,0,19.4,19.774Zm7.91,0a3.164,3.164,0,1,1-3.164-3.164A3.164,3.164,0,0,1,27.311,19.774Z" transform="translate(-0.422 0)" fill="#e8cf75"/>
    <path id="Path_14621" data-name="Path 14621" d="M47.459,20.8a2.362,2.362,0,0,0-.49-1.424C44.359,16,34.981,5,23.73,5S3.1,16,.5,19.377A2.357,2.357,0,0,0,.005,20.8v.023c0,.007,0,.013,0,.02A2.354,2.354,0,0,0,.5,22.267,45.388,45.388,0,0,0,13.4,33.721q-1.43-.422-2.816-.976a.792.792,0,0,0-.588,1.47A34.972,34.972,0,0,0,23.73,36.639,34.972,34.972,0,0,0,37.471,34.21a.792.792,0,1,0-.588-1.47q-1.384.553-2.816.976a45.348,45.348,0,0,0,12.9-11.454,2.351,2.351,0,0,0,.491-1.424c0-.007,0-.013,0-.02V20.8ZM23.73,6.582c7.611,0,14.4,5.5,18.521,9.772a37.9,37.9,0,0,0-12-4.418.057.057,0,0,1-.03-.006,35.212,35.212,0,0,0-12.972,0,.061.061,0,0,0-.031.006A37.892,37.892,0,0,0,5.21,16.354C9.334,12.085,16.119,6.582,23.73,6.582Zm9.492,14.237a9.492,9.492,0,1,1-15.456-7.373,33.379,33.379,0,0,1,11.928,0A9.435,9.435,0,0,1,33.222,20.819Zm-31.614.147a9.232,9.232,0,0,1,1.609-1.424c-.032.464-.051.912-.051,1.277A15.187,15.187,0,0,0,3.4,23.307q-.854-.983-1.652-2.012a.767.767,0,0,1-.142-.328ZM23.73,35.057c-7.393,0-14.007-5.191-18.158-9.4a18.667,18.667,0,0,1-.825-4.835,22.868,22.868,0,0,1,.162-2.428,36.7,36.7,0,0,1,10.058-4.327,11.074,11.074,0,1,0,17.526,0,36.7,36.7,0,0,1,10.062,4.327,23.087,23.087,0,0,1,.158,2.428,18.667,18.667,0,0,1-.825,4.835C37.738,29.866,31.123,35.057,23.73,35.057Zm20.328-11.75a15.186,15.186,0,0,0,.237-2.488c0-.365-.02-.812-.051-1.275a9.278,9.278,0,0,1,1.609,1.424.773.773,0,0,1-.14.328c-.4.509-.953,1.2-1.655,2.011Zm-19.974,15a.791.791,0,0,0-1.061.354L21.44,41.822a.791.791,0,0,0,.708,1.145h1.884l-1.01,2.019a.791.791,0,0,0,1.416.707l1.582-3.164a.791.791,0,0,0-.708-1.145H23.428l1.014-2.019a.791.791,0,0,0-.358-1.061Zm-18.1.34a.791.791,0,0,0,.309-1.31L4.956,36,7.1,35.289a.792.792,0,1,0-.5-1.5L3.244,34.906a.791.791,0,0,0-.309,1.309l1.333,1.333-2.142.712a.792.792,0,0,0,.5,1.5Zm39.356-.383-2.142-.712,1.333-1.333a.791.791,0,0,0-.309-1.309l-3.355-1.116a.792.792,0,0,0-.5,1.5l2.142.712-1.333,1.328a.791.791,0,0,0,.309,1.31l3.356,1.118a.792.792,0,0,0,.5-1.5Z" transform="translate(-0.005 -1.045)" fill="#58c5c7"/>
  </g>
</svg>
