<svg id="add_6_" data-name="add(6)" xmlns="http://www.w3.org/2000/svg" width="24" height="24" viewBox="0 0 24 24">
  <path id="Path_16175" data-name="Path 16175" d="M21.25,0H2.75A2.752,2.752,0,0,0,0,2.75v10.5A2.752,2.752,0,0,0,2.75,16h8.029A7.483,7.483,0,0,1,24,13.519V2.75A2.752,2.752,0,0,0,21.25,0Zm-15,4.5H3.75a.75.75,0,0,1,0-1.5h2.5a.75.75,0,0,1,0,1.5ZM12,11a3,3,0,1,1,3-3A3,3,0,0,1,12,11Z" fill="#464646"/>
  <path id="Path_16176" data-name="Path 16176" d="M18,12a6,6,0,1,0,6,6A6.007,6.007,0,0,0,18,12Zm2.75,7H19v1.75a1,1,0,0,1-2,0V19H15.25a1,1,0,0,1,0-2H17V15.25a1,1,0,0,1,2,0V17h1.75a1,1,0,0,1,0,2Z" fill="#464646"/>
</svg>
