<svg id="dashboard" xmlns="http://www.w3.org/2000/svg" width="17.131" height="17.13" viewBox="0 0 17.131 17.13">
  <path id="Path_1773" data-name="Path 1773" d="M6.6,0H1.249A1.25,1.25,0,0,0,0,1.249V4.461A1.25,1.25,0,0,0,1.249,5.71H6.6A1.25,1.25,0,0,0,7.851,4.461V1.249A1.25,1.25,0,0,0,6.6,0Zm0,0" fill="#464646"/>
  <path id="Path_1774" data-name="Path 1774" d="M6.6,213.332H1.249A1.25,1.25,0,0,0,0,214.581v7.494a1.25,1.25,0,0,0,1.249,1.249H6.6a1.25,1.25,0,0,0,1.249-1.249v-7.494A1.25,1.25,0,0,0,6.6,213.332Zm0,0" transform="translate(0 -206.195)" fill="#464646"/>
  <path id="Path_1775" data-name="Path 1775" d="M283.934,341.332h-5.353a1.25,1.25,0,0,0-1.249,1.249v3.212a1.25,1.25,0,0,0,1.249,1.249h5.353a1.25,1.25,0,0,0,1.249-1.249v-3.212A1.25,1.25,0,0,0,283.934,341.332Zm0,0" transform="translate(-268.053 -329.912)" fill="#464646"/>
  <path id="Path_1776" data-name="Path 1776" d="M283.934,0h-5.353a1.25,1.25,0,0,0-1.249,1.249V8.743a1.25,1.25,0,0,0,1.249,1.249h5.353a1.25,1.25,0,0,0,1.249-1.249V1.249A1.25,1.25,0,0,0,283.934,0Zm0,0" transform="translate(-268.053)" fill="#464646"/>
</svg>
