<svg xmlns="http://www.w3.org/2000/svg" width="13.243" height="25.558" viewBox="0 0 13.243 25.558">
  <g id="dollar" transform="translate(-116.652 0)">
    <path id="Path_17456" data-name="Path 17456" d="M126.828,11.609a30.77,30.77,0,0,0-3.125-1.415,7.016,7.016,0,0,1-1.716-.961,1.492,1.492,0,0,1,.369-2.655,3.012,3.012,0,0,1,1.05-.216,7.973,7.973,0,0,1,3.948.781c.623.3.829.206,1.04-.443.222-.686.406-1.383.612-2.074a.725.725,0,0,0-.47-.966,10.037,10.037,0,0,0-2.491-.744c-1.13-.174-1.13-.179-1.135-1.314C124.906,0,124.906,0,123.3,0c-.232,0-.465-.005-.7,0-.75.021-.876.153-.9.908-.011.338,0,.676-.005,1.019-.005,1-.011.987-.971,1.335a5.355,5.355,0,0,0-3.911,4.962c-.137,2.243,1.035,3.758,2.877,4.862a31.8,31.8,0,0,0,3.595,1.615,5.339,5.339,0,0,1,1.309.771,1.8,1.8,0,0,1-.428,3.146,4.305,4.305,0,0,1-2.307.3,10.3,10.3,0,0,1-3.516-1.05c-.649-.338-.839-.248-1.061.454-.19.607-.359,1.219-.528,1.832-.227.823-.143,1.019.644,1.4a11.225,11.225,0,0,0,3.167.908c.855.137.882.174.892,1.061.005.4.005.808.011,1.209a.718.718,0,0,0,.771.813c.591.011,1.188.011,1.779-.005a.677.677,0,0,0,.734-.765c0-.549.026-1.1.005-1.652a.873.873,0,0,1,.755-.992,5.965,5.965,0,0,0,3.109-2,5.61,5.61,0,0,0-1.8-8.53Z" transform="translate(0 0)" fill="#464646"/>
  </g>
</svg>
