<svg xmlns="http://www.w3.org/2000/svg" width="198.605" height="72.083" viewBox="0 0 198.605 72.083">
  <g id="empty-class" transform="translate(-710.004 -351.923)">
    <g id="Group_1628" data-name="Group 1628" transform="translate(710 359.642)">
      <g id="Background">
        <path id="Path_9855" data-name="Path 9855" d="M895.737,419.619a6.436,6.436,0,1,1,6.436,6.436,6.436,6.436,0,0,1-6.436-6.436ZM752.3,426.055a6.436,6.436,0,0,1,0-12.873H716.44a6.436,6.436,0,0,1,0-12.873h36.78a6.436,6.436,0,0,0,0-12.873H730.229a6.436,6.436,0,0,1,0-12.873h36.78a6.436,6.436,0,0,1,0-12.873H819.42a6.436,6.436,0,0,1,0,12.873h58.847a6.436,6.436,0,0,1,0,12.873H898.5a6.436,6.436,0,0,1,0,12.873H881.03a6.437,6.437,0,0,0,0,12.873h5.517a6.437,6.437,0,0,1,0,12.873Z" transform="translate(-710 -361.691)" fill="#f3f7ff"/>
      </g>
      <g id="Oval" transform="translate(25.746 11.034)">
        <path id="Path_9856" data-name="Path 9856" d="M741.678,381.047a3.678,3.678,0,1,1,3.678-3.678,3.678,3.678,0,0,1-3.678,3.678Zm0-5.517a1.839,1.839,0,1,0,1.839,1.839,1.839,1.839,0,0,0-1.839-1.839Z" transform="translate(-738 -373.691)" fill="#30d5c8"/>
      </g>
      <g id="Oval-2" transform="translate(149.877 55.169)">
        <circle id="Ellipse_714" data-name="Ellipse 714" cx="2.758" cy="2.758" r="2.758" transform="translate(0 0)" fill="#e1ebff"/>
      </g>
      <g id="Line_5" data-name="Line 5" transform="translate(165.056 27.132)">
        <path id="Path_9857" data-name="Path 9857" d="M890.774,401.183a1.15,1.15,0,0,1-.813-1.963l2.974-2.968-3.09-3.09a1.15,1.15,0,1,1,1.626-1.626l3.09,3.09,3.085-3.09a1.15,1.15,0,1,1,1.627,1.625l-3.086,3.091,2.969,2.969a1.15,1.15,0,0,1-1.626,1.626l-2.969-2.969-2.975,2.97a1.144,1.144,0,0,1-.812.335Z" transform="translate(-889.508 -391.199)" fill="#30d5c8"/>
      </g>
      <g id="Line_4" data-name="Line 4" transform="translate(31.404 42.615)">
        <path id="Path_9858" data-name="Path 9858" d="M750.82,415.853a1.146,1.146,0,0,1-.813-.336l-1.946-1.946-1.946,1.946a1.15,1.15,0,0,1-1.626-1.626l1.946-1.946L744.49,410a1.15,1.15,0,0,1,1.626-1.626l1.946,1.947,1.946-1.947A1.149,1.149,0,0,1,751.633,410l-1.947,1.946,1.947,1.946a1.149,1.149,0,0,1-.813,1.962Z" transform="translate(-744.154 -408.037)" fill="#30d5c8"/>
      </g>
      <g id="Oval-3" transform="translate(166.428 6.436)">
        <circle id="Ellipse_715" data-name="Ellipse 715" cx="2.758" cy="2.758" r="2.758" transform="translate(0 0)" fill="#e1ebff"/>
      </g>
    </g>
    <g id="Group_3468" data-name="Group 3468" transform="translate(774 351.923)">
      <path id="Path_11236" data-name="Path 11236" d="M29.006,31.174a1.4,1.4,0,0,0-1.974.247L16.3,45.366a1.4,1.4,0,1,0,2.218,1.707l9.867-12.824,11.126,8.74a1.4,1.4,0,0,0,1.971-.243l10.5-13.551a1.4,1.4,0,1,0-2.213-1.715L40.136,39.917Z" fill="#58c5c7"/>
      <path id="Path_11237" data-name="Path 11237" d="M63.117,0a8.29,8.29,0,1,0,8.29,8.29A8.29,8.29,0,0,0,63.117,0Zm0,13.78a5.49,5.49,0,1,1,5.489-5.49,5.49,5.49,0,0,1-5.489,5.49Z" fill="#58c5c7"/>
      <path id="Path_11238" data-name="Path 11238" d="M67.218,25.2a1.4,1.4,0,0,0-1.4,1.4V51.831c0,10.331-6.314,17.007-16.087,17.007H18.888C9.115,68.838,2.8,62.162,2.8,51.831V22.859c0-10.352,6.315-17.04,16.088-17.04H44.94a1.4,1.4,0,1,0,0-2.8H18.888C7.59,3.019,0,10.992,0,22.859V51.831C0,63.679,7.59,71.639,18.888,71.639H49.73c11.3,0,18.888-7.96,18.888-19.808V26.6A1.4,1.4,0,0,0,67.218,25.2Z" fill="#58c5c7"/>
    </g>
  </g>
</svg>
