<svg id="Group_2220" data-name="Group 2220" xmlns="http://www.w3.org/2000/svg" width="27.062" height="25.712" viewBox="0 0 27.062 25.712">
  <path id="Path_14634" data-name="Path 14634" d="M14.63,0A17.7,17.7,0,0,0,2.117,5.109a.451.451,0,1,0,.667.607,16.981,16.981,0,0,1,23.691,0,.451.451,0,1,0,.667-.607A17.7,17.7,0,0,0,14.63,0ZM11.923,11.277A2.706,2.706,0,1,0,14.63,8.57,2.706,2.706,0,0,0,11.923,11.277Zm4.511,0a1.8,1.8,0,1,1-1.8-1.8A1.8,1.8,0,0,1,16.434,11.277Z" transform="translate(-1.1 0)"/>
  <path id="Path_14635" data-name="Path 14635" d="M27.067,14.008a1.347,1.347,0,0,0-.28-.812C25.3,11.275,19.951,5,13.535,5S1.771,11.275.285,13.2a1.344,1.344,0,0,0-.28.812v.013s0,.007,0,.011a1.343,1.343,0,0,0,.28.812,25.884,25.884,0,0,0,7.356,6.532q-.815-.241-1.606-.557a.451.451,0,0,0-.336.838,19.944,19.944,0,0,0,7.834,1.383,19.944,19.944,0,0,0,7.836-1.385.451.451,0,1,0-.336-.838q-.79.316-1.606.557a25.861,25.861,0,0,0,7.355-6.532,1.341,1.341,0,0,0,.28-.812s0-.007,0-.011v-.013ZM13.535,5.9c4.34,0,8.21,3.138,10.562,5.573a21.614,21.614,0,0,0-6.845-2.52.032.032,0,0,1-.017,0,20.081,20.081,0,0,0-7.4,0,.035.035,0,0,0-.018,0,21.609,21.609,0,0,0-6.846,2.52C5.325,9.04,9.195,5.9,13.535,5.9Zm5.413,8.119a5.413,5.413,0,1,1-8.814-4.2,19.035,19.035,0,0,1,6.8,0A5.38,5.38,0,0,1,18.948,14.022ZM.919,14.105a5.265,5.265,0,0,1,.917-.812c-.018.265-.029.52-.029.728a8.661,8.661,0,0,0,.135,1.419Q1.456,14.88,1,14.293a.438.438,0,0,1-.081-.187Zm12.616,8.035c-4.216,0-7.988-2.96-10.355-5.362a10.645,10.645,0,0,1-.47-2.757A13.041,13.041,0,0,1,2.8,12.637a20.93,20.93,0,0,1,5.736-2.468,6.315,6.315,0,1,0,9.995,0,20.93,20.93,0,0,1,5.738,2.468,13.167,13.167,0,0,1,.09,1.385,10.645,10.645,0,0,1-.47,2.757C21.524,19.181,17.751,22.141,13.535,22.141Zm11.593-6.7a8.66,8.66,0,0,0,.135-1.419c0-.208-.011-.463-.029-.727a5.291,5.291,0,0,1,.917.812.441.441,0,0,1-.08.187c-.226.29-.544.687-.944,1.147ZM13.737,23.993a.451.451,0,0,0-.605.2l-.9,1.8a.451.451,0,0,0,.4.653h1.074L13.131,27.8a.451.451,0,0,0,.807.4l.9-1.8a.451.451,0,0,0-.4-.653H13.363l.578-1.152a.451.451,0,0,0-.2-.605Zm-10.324.194a.451.451,0,0,0,.176-.747l-.76-.76,1.222-.406a.452.452,0,1,0-.286-.857l-1.913.638a.451.451,0,0,0-.176.747l.76.76-1.222.406a.452.452,0,0,0,.285.857Zm22.444-.218-1.222-.406.76-.76a.451.451,0,0,0-.176-.747l-1.913-.636a.452.452,0,0,0-.286.857l1.222.406-.76.757a.451.451,0,0,0,.176.747l1.914.638a.452.452,0,0,0,.285-.857Z" transform="translate(-0.005 -2.744)"/>
</svg>
