<svg xmlns="http://www.w3.org/2000/svg" width="26.268" height="35.023" viewBox="0 0 26.268 35.023">
  <path id="film" d="M21.89,31.74a1.1,1.1,0,0,0,1.094-1.094v-19.7H17.512a2.187,2.187,0,0,1-2.189-2.189V3.283H4.378A1.1,1.1,0,0,0,3.283,4.378V30.646A1.1,1.1,0,0,0,4.378,31.74ZM0,4.378A4.382,4.382,0,0,1,4.378,0H15.7a4.379,4.379,0,0,1,3.1,1.279L24.988,7.47a4.379,4.379,0,0,1,1.279,3.1V30.646a4.382,4.382,0,0,1-4.378,4.378H4.378A4.382,4.382,0,0,1,0,30.646ZM5.472,19.7a2.187,2.187,0,0,1,2.189-2.189h6.567A2.187,2.187,0,0,1,16.417,19.7V20.8l3.071-2.045a.867.867,0,0,1,.465-.144.841.841,0,0,1,.841.841v7.073a.841.841,0,0,1-.841.841.812.812,0,0,1-.465-.144l-3.071-2.045v1.094a2.187,2.187,0,0,1-2.189,2.189H7.661a2.187,2.187,0,0,1-2.189-2.189Z" fill="#707070"/>
</svg>
