<svg id="help" xmlns="http://www.w3.org/2000/svg" width="21" height="21" viewBox="0 0 21 21">
  <path id="Path_16173" data-name="Path 16173" d="M211.531,204.743a6.809,6.809,0,0,0-3.734-6.063,9.259,9.259,0,0,1-9.117,9.117,6.79,6.79,0,0,0,9.517,2.79l3.3.914-.914-3.3A6.764,6.764,0,0,0,211.531,204.743Zm0,0" transform="translate(-190.531 -190.531)" fill="#464646"/>
  <path id="Path_16174" data-name="Path 16174" d="M16.037,8.019A8.019,8.019,0,1,0,1.112,12.094L.029,16.007l3.913-1.082A8.02,8.02,0,0,0,16.037,8.019ZM6.788,6.152H5.558A2.461,2.461,0,1,1,9.679,7.968l-1.045.957v.96H7.4v-1.5L8.848,7.061a1.218,1.218,0,0,0,.4-.908,1.23,1.23,0,0,0-2.461,0ZM7.4,11.115h1.23v1.23H7.4Zm0,0" fill="#464646"/>
</svg>
