<svg id="interface_3_" data-name="interface(3)" xmlns="http://www.w3.org/2000/svg" width="26" height="26" viewBox="0 0 26 26">
  <g id="Group_548" data-name="Group 548">
    <g id="Group_547" data-name="Group 547">
      <path id="Path_1948" data-name="Path 1948" d="M13,0A13,13,0,1,0,26,13,12.993,12.993,0,0,0,13,0Zm0,24.267A11.267,11.267,0,1,1,24.267,13,11.279,11.279,0,0,1,13,24.267Z" fill="#80b022"/>
    </g>
  </g>
  <g id="Group_550" data-name="Group 550" transform="translate(12.133 10.653)">
    <g id="Group_549" data-name="Group 549">
      <path id="Path_1949" data-name="Path 1949" d="M239.8,209.777a.867.867,0,0,0-.867.867v7.311a.867.867,0,0,0,1.733,0v-7.311A.867.867,0,0,0,239.8,209.777Z" transform="translate(-238.93 -209.777)" fill="#80b022"/>
    </g>
  </g>
  <g id="Group_552" data-name="Group 552" transform="translate(11.267 6.303)">
    <g id="Group_551" data-name="Group 551">
      <path id="Path_1950" data-name="Path 1950" d="M223.6,124.122a1.733,1.733,0,1,0,1.733,1.733A1.735,1.735,0,0,0,223.6,124.122Z" transform="translate(-221.867 -124.122)" fill="#80b022"/>
    </g>
  </g>
</svg>
