<svg xmlns="http://www.w3.org/2000/svg" width="20.288" height="19.442" viewBox="0 0 20.288 19.442">
  <g id="like_3_" data-name="like(3)" transform="translate(0 -10.667)">
    <g id="Group_2221" data-name="Group 2221" transform="translate(0 19.12)">
      <g id="Group_2220" data-name="Group 2220" transform="translate(0 0)">
        <path id="Path_14791" data-name="Path 14791" d="M2.113,224A2.116,2.116,0,0,0,0,226.113v6.763a2.116,2.116,0,0,0,2.113,2.113H4.649a2.1,2.1,0,0,0,1.268-.428V224Z" transform="translate(0 -224)" fill="#a9a9a9"/>
      </g>
    </g>
    <g id="Group_2223" data-name="Group 2223" transform="translate(6.763 10.667)">
      <g id="Group_2222" data-name="Group 2222" transform="translate(0 0)">
        <path id="Path_14792" data-name="Path 14792" d="M184.192,22.29a1.874,1.874,0,0,0-.55-1.331,2.1,2.1,0,0,0,.541-1.614,2.185,2.185,0,0,0-2.2-1.916h-5.222a12.154,12.154,0,0,0,.673-3.381c0-1.834-1.558-3.381-2.536-3.381a2.659,2.659,0,0,0-1.533.515.425.425,0,0,0-.158.331v2.866l-2.435,5.274-.1.052v9.06a5.538,5.538,0,0,0,2.113.5h7.759a1.944,1.944,0,0,0,1.915-1.477,1.9,1.9,0,0,0-.153-1.27,1.893,1.893,0,0,0,.846-2.537A1.892,1.892,0,0,0,184.192,22.29Z" transform="translate(-170.667 -10.667)" fill="#a9a9a9"/>
      </g>
    </g>
  </g>
</svg>
