<svg id="man-avatar" xmlns="http://www.w3.org/2000/svg" width="25.853" height="30.988" viewBox="0 0 25.853 30.988">
  <path id="Path_1914" data-name="Path 1914" d="M94.5,14.927a7.222,7.222,0,0,0,5.277-2.187,7.222,7.222,0,0,0,2.186-5.277,7.223,7.223,0,0,0-2.187-5.277,7.462,7.462,0,0,0-10.554,0,7.222,7.222,0,0,0-2.187,5.277,7.222,7.222,0,0,0,2.187,5.277A7.224,7.224,0,0,0,94.5,14.927ZM90.5,3.471a5.646,5.646,0,0,1,7.986,0,5.4,5.4,0,0,1,1.655,3.993,5.4,5.4,0,0,1-1.655,3.993,5.645,5.645,0,0,1-7.986,0,5.4,5.4,0,0,1-1.655-3.993A5.4,5.4,0,0,1,90.5,3.471Zm0,0" transform="translate(-81.764 0)" fill="#696464"/>
  <path id="Path_1915" data-name="Path 1915" d="M25.791,256.176a18.436,18.436,0,0,0-.251-1.958,15.427,15.427,0,0,0-.482-1.969,9.725,9.725,0,0,0-.81-1.836,6.921,6.921,0,0,0-1.22-1.59,5.38,5.38,0,0,0-1.753-1.1,6.059,6.059,0,0,0-2.238-.4,2.272,2.272,0,0,0-1.213.514c-.364.237-.789.511-1.264.815a7.241,7.241,0,0,1-1.635.72,6.349,6.349,0,0,1-4,0,7.219,7.219,0,0,1-1.634-.72c-.47-.3-.9-.575-1.265-.815a2.269,2.269,0,0,0-1.213-.514,6.05,6.05,0,0,0-2.238.405,5.376,5.376,0,0,0-1.753,1.1,6.923,6.923,0,0,0-1.22,1.59,9.744,9.744,0,0,0-.809,1.836,15.465,15.465,0,0,0-.481,1.968,18.309,18.309,0,0,0-.251,1.959c-.041.592-.062,1.208-.062,1.83A5.146,5.146,0,0,0,1.528,261.9a5.5,5.5,0,0,0,3.938,1.436H20.387a5.5,5.5,0,0,0,3.938-1.436,5.144,5.144,0,0,0,1.528-3.893c0-.624-.021-1.24-.063-1.83Zm-2.718,4.408a3.7,3.7,0,0,1-2.686.936H5.466a3.7,3.7,0,0,1-2.686-.936,3.36,3.36,0,0,1-.964-2.577c0-.581.019-1.154.057-1.7a16.515,16.515,0,0,1,.227-1.763,13.638,13.638,0,0,1,.423-1.736,7.932,7.932,0,0,1,.659-1.493,5.131,5.131,0,0,1,.9-1.175,3.569,3.569,0,0,1,1.166-.725,4.179,4.179,0,0,1,1.43-.276c.064.034.177.1.36.218.373.243.8.521,1.279.825a9,9,0,0,0,2.052.917,8.164,8.164,0,0,0,5.117,0,9.006,9.006,0,0,0,2.054-.918c.487-.311.905-.581,1.278-.824.183-.119.3-.184.36-.218a4.181,4.181,0,0,1,1.431.276,3.575,3.575,0,0,1,1.166.725,5.117,5.117,0,0,1,.9,1.175,7.9,7.9,0,0,1,.659,1.493,13.6,13.6,0,0,1,.424,1.736,16.652,16.652,0,0,1,.227,1.764h0c.039.548.058,1.121.058,1.7a3.36,3.36,0,0,1-.965,2.577Zm0,0" transform="translate(0 -232.348)" fill="#696464"/>
</svg>
