<svg xmlns="http://www.w3.org/2000/svg" width="18.879" height="25.172" viewBox="0 0 18.879 25.172">
  <g id="orders" transform="translate(-64)">
    <path id="Path_17459" data-name="Path 17459" d="M168.653,1.573h-1.709a2.36,2.36,0,0,0-4.451,0h-1.707A.787.787,0,0,0,160,2.36V5.506a.787.787,0,0,0,.787.787h7.866a.787.787,0,0,0,.787-.787V2.36A.787.787,0,0,0,168.653,1.573Z" transform="translate(-91.28)" fill="#464646"/>
    <path id="Path_17460" data-name="Path 17460" d="M81.305,64H79.732v2.36a2.363,2.363,0,0,1-2.36,2.36H69.506a2.363,2.363,0,0,1-2.36-2.36V64H65.573A1.576,1.576,0,0,0,64,65.573V84.452a1.556,1.556,0,0,0,1.573,1.573H81.305a1.556,1.556,0,0,0,1.573-1.573V65.573A1.556,1.556,0,0,0,81.305,64Zm-8.1,13.929-3.146,3.146a.79.79,0,0,1-1.114,0L67.376,79.5a.786.786,0,0,1,1.112-1.112l1.018,1.016,2.59-2.59a.787.787,0,0,1,1.114,1.112Zm0-6.293-3.146,3.146a.79.79,0,0,1-1.114,0L67.376,73.21A.786.786,0,0,1,68.488,72.1l1.018,1.016,2.59-2.59a.787.787,0,0,1,1.114,1.112Zm5.736,8.1H75.8a.787.787,0,0,1,0-1.573h3.146a.787.787,0,1,1,0,1.573Zm0-6.293H75.8a.787.787,0,0,1,0-1.573h3.146a.787.787,0,1,1,0,1.573Z" transform="translate(0 -60.854)" fill="#464646"/>
  </g>
</svg>
