<svg id="phone_3_" data-name="phone(3)" xmlns="http://www.w3.org/2000/svg" width="22.949" height="20.327" viewBox="0 0 22.949 20.327">
  <path id="Path_4377" data-name="Path 4377" d="M18.328,72.812l-2.186-2.184a2.586,2.586,0,0,0-3.635-.195l-.744.743a.935.935,0,0,1-1.272-.161L8.443,68.97A.92.92,0,0,1,8.282,67.7l.744-.743a2.577,2.577,0,0,0-.2-3.633L6.645,61.14a2.586,2.586,0,0,0-3.635-.195l-1.631,1.63a4.543,4.543,0,0,0-.611,5.788,65.8,65.8,0,0,0,10.2,9.855,4.594,4.594,0,0,0,5.922-.144l1.631-1.63A2.577,2.577,0,0,0,18.328,72.812Zm-.755,2.682-1.631,1.63a3.248,3.248,0,0,1-4.2,0A65.191,65.191,0,0,1,1.9,67.634a3.186,3.186,0,0,1,.431-4.108L3.961,61.9a1.258,1.258,0,0,1,1.734.195L7.88,64.276a1.246,1.246,0,0,1,.2,1.73l-.744.743a2.248,2.248,0,0,0,.162,3.172L9.54,71.967a2.258,2.258,0,0,0,3.173.161l.744-.743a1.252,1.252,0,0,1,1.734.195l2.186,2.184A1.246,1.246,0,0,1,17.572,75.493Z" transform="translate(-0.001 -58.897)" fill="#58c5c7"/>
  <path id="Path_4378" data-name="Path 4378" d="M277.892,31.817a.672.672,0,0,0,.789-.531.849.849,0,0,1,1.683.131l-.019.147a3.326,3.326,0,0,1-.522,1.035c-2.124,3.05-2.4,3.021-2.233,3.575a.7.7,0,0,0,.454.46,31.349,31.349,0,0,0,3.261.058.672.672,0,0,0-.011-1.345c-.611,0-1.259.007-1.793.005.331-.445.795-1.081,1.425-1.986a3.907,3.907,0,0,0,.783-1.914,2.194,2.194,0,0,0-4.349-.425.672.672,0,0,0,.531.789Z" transform="translate(-264.915 -29.251)" fill="#58c5c7"/>
  <path id="Path_4379" data-name="Path 4379" d="M400.866,33.761h-.1c.009-1.468.013-3.044-.005-3.262a1.026,1.026,0,0,0-1.882-.579c-.347.425-1.951,3.314-2.434,4.189a.673.673,0,0,0,.589,1h2.378c0,.4-.006.779-.009,1.123a.672.672,0,0,0,1.345.012c0-.211.005-.624.009-1.135h.113a.672.672,0,1,0,0-1.345Zm-1.449,0h-1.244c.465-.832.919-1.63,1.252-2.2C399.424,32.151,399.421,32.941,399.416,33.761Z" transform="translate(-378.589 -29.45)" fill="#58c5c7"/>
</svg>
