<svg id="phone_3_" data-name="phone(3)" xmlns="http://www.w3.org/2000/svg" width="37.437" height="33.158" viewBox="0 0 37.437 33.158">
  <path id="Path_4377" data-name="Path 4377" d="M29.9,80.718l-3.566-3.562a4.218,4.218,0,0,0-5.929-.318L19.188,78.05a1.525,1.525,0,0,1-2.076-.263l-3.34-3.337a1.5,1.5,0,0,1-.263-2.071l1.214-1.213a4.2,4.2,0,0,0-.318-5.926l-3.566-3.562A4.218,4.218,0,0,0,4.91,61.36L2.249,64.019a7.41,7.41,0,0,0-1,9.442c1.662,2.576,11.592,12.523,16.641,16.076,3.138,2.208,7.18,2.242,9.66-.235l2.661-2.658A4.2,4.2,0,0,0,29.9,80.718Zm-1.232,4.374L26,87.75c-1.663,1.662-4.479,1.659-6.847-.007C14.376,84.379,4.643,74.669,3.1,72.272a5.2,5.2,0,0,1,.7-6.7l2.661-2.658a2.052,2.052,0,0,1,2.828.318l3.566,3.562a2.033,2.033,0,0,1,.318,2.822l-1.214,1.213A3.668,3.668,0,0,0,12.222,76l3.34,3.337a3.683,3.683,0,0,0,5.177.263l1.214-1.213a2.042,2.042,0,0,1,2.828.318l3.566,3.562A2.033,2.033,0,0,1,28.665,85.092Z" transform="translate(-0.001 -58.019)" fill="#58c5c7"/>
  <path id="Path_4378" data-name="Path 4378" d="M278.235,33.437a1.1,1.1,0,0,0,1.287-.866,1.386,1.386,0,0,1,2.746.214l-.03.239a5.425,5.425,0,0,1-.851,1.689c-3.465,4.975-3.922,4.929-3.643,5.832a1.142,1.142,0,0,0,.741.751,51.14,51.14,0,0,0,5.32.095,1.1,1.1,0,0,0-.017-2.194c-1,.008-2.054.011-2.924.008.54-.726,1.3-1.763,2.325-3.239a6.373,6.373,0,0,0,1.277-3.122,3.58,3.58,0,0,0-7.094-.694,1.1,1.1,0,0,0,.866,1.287Z" transform="translate(-257.067 -29.251)" fill="#58c5c7"/>
  <path id="Path_4379" data-name="Path 4379" d="M403.712,36.476h-.17c.014-2.395.021-4.966-.008-5.322a1.673,1.673,0,0,0-3.069-.945c-.565.693-3.182,5.405-3.97,6.833a1.1,1.1,0,0,0,.96,1.627h3.879c0,.649-.01,1.271-.015,1.832a1.1,1.1,0,0,0,2.194.019c0-.345.009-1.017.015-1.851h.185a1.1,1.1,0,1,0,0-2.194Zm-2.364,0h-2.029c.759-1.357,1.5-2.659,2.042-3.582C401.361,33.851,401.356,35.139,401.348,36.476Z" transform="translate(-367.373 -29.444)" fill="#58c5c7"/>
</svg>
