<svg id="pin_5_" data-name="pin(5)" xmlns="http://www.w3.org/2000/svg" width="16.018" height="22.782" viewBox="0 0 16.018 22.782">
  <g id="Group_1696" data-name="Group 1696" transform="translate(0)">
    <g id="Group_1695" data-name="Group 1695" transform="translate(0)">
      <path id="Path_4380" data-name="Path 4380" d="M84.009,0A8.011,8.011,0,0,0,77.2,12.221l6.358,10.245a.667.667,0,0,0,.567.316h.005a.667.667,0,0,0,.567-.324l6.2-10.345A8.011,8.011,0,0,0,84.009,0Zm5.734,11.427-5.633,9.4-5.78-9.315a6.679,6.679,0,1,1,11.413-.09Z" transform="translate(-76)" fill="#58c5c7"/>
    </g>
  </g>
  <g id="Group_1698" data-name="Group 1698" transform="translate(4.005 4.005)">
    <g id="Group_1697" data-name="Group 1697">
      <path id="Path_4381" data-name="Path 4381" d="M170,90a4,4,0,1,0,4,4A4.009,4.009,0,0,0,170,90Zm0,6.683A2.679,2.679,0,1,1,172.679,94,2.681,2.681,0,0,1,170,96.683Z" transform="translate(-166 -90)" fill="#58c5c7"/>
    </g>
  </g>
</svg>
