<svg id="pin_5_" data-name="pin(5)" xmlns="http://www.w3.org/2000/svg" width="24.129" height="34.317" viewBox="0 0 24.129 34.317">
  <g id="Group_1696" data-name="Group 1696">
    <g id="Group_1695" data-name="Group 1695" transform="translate(0)">
      <path id="Path_4380" data-name="Path 4380" d="M88.065,0A12.067,12.067,0,0,0,77.8,18.409l9.577,15.433a1,1,0,0,0,.854.475h.008a1,1,0,0,0,.855-.489l9.333-15.583A12.067,12.067,0,0,0,88.065,0ZM96.7,17.213,88.217,31.38,79.51,17.349A10.06,10.06,0,1,1,96.7,17.213Z" transform="translate(-76)" fill="#58c5c7"/>
    </g>
  </g>
  <g id="Group_1698" data-name="Group 1698" transform="translate(6.032 6.032)">
    <g id="Group_1697" data-name="Group 1697">
      <path id="Path_4381" data-name="Path 4381" d="M172.032,90a6.032,6.032,0,1,0,6.032,6.032A6.039,6.039,0,0,0,172.032,90Zm0,10.067a4.035,4.035,0,1,1,4.028-4.035A4.038,4.038,0,0,1,172.032,100.067Z" transform="translate(-166 -90)" fill="#58c5c7"/>
    </g>
  </g>
</svg>
