<svg xmlns="http://www.w3.org/2000/svg" width="25.832" height="21.526" viewBox="0 0 25.832 21.526">
  <path id="Path_17487" data-name="Path 17487" d="M12.916,17.068a.806.806,0,0,1-.583-.25L6.682,10.9a.807.807,0,0,1,.583-1.365h2.96V3.345A1.347,1.347,0,0,1,11.57,2h2.691a1.347,1.347,0,0,1,1.345,1.345V9.534h2.96A.807.807,0,0,1,19.15,10.9L13.5,16.819a.806.806,0,0,1-.583.25Zm11.032,6.458H1.884A1.886,1.886,0,0,1,0,21.643V21.1a1.886,1.886,0,0,1,1.884-1.884H23.948A1.886,1.886,0,0,1,25.832,21.1v.538A1.886,1.886,0,0,1,23.948,23.526Z" transform="translate(0 -2)" fill="#fff"/>
</svg>
