<svg xmlns="http://www.w3.org/2000/svg" width="21.534" height="20.637" viewBox="0 0 21.534 20.637">
  <path id="star_10_" data-name="star(10)" d="M21.478,8.294a1.143,1.143,0,0,0-.984-.786l-6.216-.564L11.82,1.192a1.145,1.145,0,0,0-2.106,0L7.258,6.943,1.04,7.508a1.146,1.146,0,0,0-.65,2l4.7,4.12L3.7,19.733a1.144,1.144,0,0,0,1.7,1.237l5.36-3.205,5.359,3.205a1.145,1.145,0,0,0,1.7-1.237l-1.386-6.1,4.7-4.12a1.146,1.146,0,0,0,.334-1.217ZM10.87,17.7" transform="translate(0 -0.496)" fill="#eeb602"/>
</svg>
