<svg xmlns="http://www.w3.org/2000/svg" width="24" height="19.847" viewBox="0 0 24 19.847">
  <g id="support" transform="translate(-5.232 -12.113)">
    <g id="Group_2578" data-name="Group 2578" transform="translate(5.232 12.113)">
      <path id="Path_17457" data-name="Path 17457" d="M17.541,12.119a9.442,9.442,0,0,0-9.384,6.8,1.533,1.533,0,0,0-.608.056A3.112,3.112,0,0,0,5.684,20.6,5.506,5.506,0,0,0,5.3,23.7,4.713,4.713,0,0,0,6.56,26.367,2.12,2.12,0,0,0,8.528,27c1.011-.216,1.512-.377,1.371-1.319l-.685-4.565a8.031,8.031,0,0,1,16.036.011l-.479,3.193a8.023,8.023,0,0,1-6.784,5.238H15.945a.949.949,0,0,0-.951.951v.5a.949.949,0,0,0,.951.951h2.574a.947.947,0,0,0,.949-.951v-.263a9.477,9.477,0,0,0,5.644-3.967l.825.219a2.051,2.051,0,0,0,1.968-.632A4.716,4.716,0,0,0,29.163,23.7a5.543,5.543,0,0,0-.382-3.095,2.689,2.689,0,0,0-1.635-1.567,3.483,3.483,0,0,0-.844-.118,9.44,9.44,0,0,0-8.762-6.8Z" transform="translate(-5.232 -12.113)" fill="#464646" fill-rule="evenodd"/>
      <path id="Path_17458" data-name="Path 17458" d="M33.2,27.086a1.234,1.234,0,1,1-1.236,1.233A1.235,1.235,0,0,1,33.2,27.086Zm-3.322,0a1.232,1.232,0,1,1-.873.361,1.234,1.234,0,0,1,.873-.361Zm-3.321,0a1.234,1.234,0,1,1-1.234,1.233,1.234,1.234,0,0,1,1.234-1.233Zm3.321-5.3a6.563,6.563,0,0,0-4.76,11.05l-.39,1.748c-.129.575.27.962.788.674l1.706-.952a6.649,6.649,0,0,0,2.656.547,6.533,6.533,0,0,0,0-13.066Z" transform="translate(-17.882 -18.867)" fill="#464646" fill-rule="evenodd"/>
    </g>
  </g>
</svg>
