<svg id="tick_2_" data-name="tick(2)" xmlns="http://www.w3.org/2000/svg" width="47.937" height="47.937" viewBox="0 0 47.937 47.937">
  <path id="Path_1769" data-name="Path 1769" d="M56.065,33.032a23.032,23.032,0,1,1-46.065,0,23.364,23.364,0,0,1,3.537-12.27,23.035,23.035,0,0,1,42.528,12.27Zm0,0" transform="translate(-9.064 -9.064)" fill="#80b022"/>
  <path id="Path_1770" data-name="Path 1770" d="M135.1,139.848l-11.157,11.157-4.884-4.884-5.3,5.3,4.884,4.884,5.3,5.3L140.4,145.145Zm0,0" transform="translate(-103.114 -126.754)" fill="#fff"/>
  <path id="Path_1771" data-name="Path 1771" d="M114.883,153.47a.936.936,0,0,1-.662-.274l-10.18-10.18a.936.936,0,0,1,0-1.324l5.3-5.3a.936.936,0,0,1,1.324,0l4.222,4.222,10.5-10.5a.936.936,0,0,1,1.324,0l5.3,5.3a.936.936,0,0,1,0,1.324L115.545,153.2a.936.936,0,0,1-.662.274Zm-8.856-11.116,8.856,8.856,15.13-15.13-3.972-3.973-10.5,10.5a.936.936,0,0,1-1.324,0L110,138.381Zm0,0" transform="translate(-94.051 -117.69)" fill="none"/>
  <path id="Path_1772" data-name="Path 1772" d="M23.963,47.937q-.917,0-1.837-.07A23.963,23.963,0,1,1,43.45,37.939a.936.936,0,0,1-1.52-1.093,22.1,22.1,0,1,0-5.083,5.083.936.936,0,0,1,1.093,1.521,23.965,23.965,0,0,1-13.976,4.488Zm0,0" transform="translate(0 0)" fill="none"/>
</svg>
