<svg id="tick_2_" data-name="tick(2)" xmlns="http://www.w3.org/2000/svg" width="72.138" height="72.138" viewBox="0 0 72.138 72.138">
  <path id="Path_1769" data-name="Path 1769" d="M79.32,44.66a34.66,34.66,0,1,1-69.32,0,35.159,35.159,0,0,1,5.323-18.465,34.664,34.664,0,0,1,64,18.465Zm0,0" transform="translate(-8.591 -8.591)" fill="#80b022"/>
  <path id="Path_1770" data-name="Path 1770" d="M145.876,139.848l-16.79,16.79-7.35-7.35-7.97,7.97,7.35,7.35,7.97,7.97,24.76-24.76Zm0,0" transform="translate(-97.737 -120.144)" fill="#fff"/>
  <path id="Path_1771" data-name="Path 1771" d="M120.495,165.4a1.409,1.409,0,0,1-1-.413l-15.32-15.319a1.409,1.409,0,0,1,0-1.993l7.97-7.97a1.409,1.409,0,0,1,1.993,0l6.353,6.353,15.793-15.794a1.409,1.409,0,0,1,1.993,0l7.97,7.97a1.408,1.408,0,0,1,0,1.992l-24.76,24.76a1.408,1.408,0,0,1-1,.412Zm-13.327-16.728,13.327,13.327,22.768-22.768-5.978-5.978-15.794,15.794a1.408,1.408,0,0,1-1.992,0l-6.353-6.353Zm0,0" transform="translate(-89.146 -111.553)" fill="none"/>
  <path id="Path_1772" data-name="Path 1772" d="M36.06,72.138q-1.38,0-2.764-.106a36.061,36.061,0,1,1,32.089-14.94A1.409,1.409,0,0,1,63.1,55.447,33.251,33.251,0,1,0,55.448,63.1a1.409,1.409,0,0,1,1.644,2.288A36.064,36.064,0,0,1,36.06,72.138Zm0,0" transform="translate(0 0)" fill="none"/>
</svg>
