<svg xmlns="http://www.w3.org/2000/svg" width="23.435" height="20.731" viewBox="0 0 23.435 20.731">
  <g id="transaction_1_" data-name="transaction(1)" transform="translate(0 -29.539)">
    <g id="Group_2567" data-name="Group 2567" transform="translate(0 35.623)">
      <g id="Group_2566" data-name="Group 2566" transform="translate(0 0)">
        <path id="Path_16167" data-name="Path 16167" d="M20.28,172.376a2.027,2.027,0,0,1-1.671-.879l-.992-1.444a6.764,6.764,0,0,1-12.626-2.635h.642a.676.676,0,0,0,.557-1.059l-.985-1.433-1.493-2.172a.676.676,0,0,0-1.114,0L.119,166.359a.676.676,0,0,0,.557,1.059h.7a10.366,10.366,0,0,0,17.673,6.653,10.434,10.434,0,0,0,1.377-1.7C20.376,172.374,20.329,172.376,20.28,172.376Z" transform="translate(0 -162.461)" fill="#464646"/>
      </g>
    </g>
    <g id="Group_2569" data-name="Group 2569" transform="translate(9.496 35.623)">
      <g id="Group_2568" data-name="Group 2568">
        <path id="Path_16168" data-name="Path 16168" d="M210.209,166.068h-1.03a.354.354,0,0,1-.354-.354V165.2a.354.354,0,0,1,.354-.354h1.03a.354.354,0,0,1,.354.354.676.676,0,0,0,1.352,0,1.708,1.708,0,0,0-1.545-1.7v-.362a.676.676,0,1,0-1.352,0v.362a1.708,1.708,0,0,0-1.545,1.7v.515a1.708,1.708,0,0,0,1.706,1.706h1.03a.354.354,0,0,1,.354.354v.515a.355.355,0,0,1-.354.354h-1.03a.354.354,0,0,1-.354-.354.676.676,0,1,0-1.352,0,1.708,1.708,0,0,0,1.545,1.7v.362a.676.676,0,0,0,1.352,0v-.362a1.708,1.708,0,0,0,1.545-1.7v-.515A1.708,1.708,0,0,0,210.209,166.068Z" transform="translate(-207.473 -162.463)" fill="#464646"/>
      </g>
    </g>
    <g id="Group_2571" data-name="Group 2571" transform="translate(3.011 29.539)">
      <g id="Group_2570" data-name="Group 2570" transform="translate(0 0)">
        <path id="Path_16169" data-name="Path 16169" d="M86.13,39.59a.676.676,0,0,0-.6-.361h-.7a10.366,10.366,0,0,0-17.673-6.653,10.436,10.436,0,0,0-1.377,1.7c.048,0,.1-.006.144-.006a2.027,2.027,0,0,1,1.671.879l.992,1.444a6.764,6.764,0,0,1,12.626,2.635h-.642a.676.676,0,0,0-.557,1.059L81,41.721,82.5,43.893a.676.676,0,0,0,1.114,0l.9-1.3,1.584-2.3A.676.676,0,0,0,86.13,39.59Z" transform="translate(-65.784 -29.539)" fill="#464646"/>
      </g>
    </g>
  </g>
</svg>
