<svg id="user_11_" data-name="user(11)" xmlns="http://www.w3.org/2000/svg" width="21.074" height="25.26" viewBox="0 0 21.074 25.26">
  <path id="Path_12696" data-name="Path 12696" d="M93.116,12.168a5.887,5.887,0,0,0,4.3-1.782,5.887,5.887,0,0,0,1.782-4.3,5.888,5.888,0,0,0-1.782-4.3,6.083,6.083,0,0,0-8.6,0,5.887,5.887,0,0,0-1.782,4.3,5.887,5.887,0,0,0,1.783,4.3A5.888,5.888,0,0,0,93.116,12.168Zm0,0" transform="translate(-82.738 0)" fill="#464646"/>
  <path id="Path_12697" data-name="Path 12697" d="M21.023,254.538a15.027,15.027,0,0,0-.2-1.6,12.575,12.575,0,0,0-.393-1.6,7.926,7.926,0,0,0-.66-1.5,5.648,5.648,0,0,0-.995-1.3,4.386,4.386,0,0,0-1.429-.9,4.938,4.938,0,0,0-1.824-.33,1.852,1.852,0,0,0-.989.419c-.3.193-.643.417-1.03.664a5.9,5.9,0,0,1-1.333.587,5.176,5.176,0,0,1-3.26,0,5.889,5.889,0,0,1-1.332-.587c-.383-.245-.73-.468-1.031-.664a1.849,1.849,0,0,0-.988-.419,4.932,4.932,0,0,0-1.824.331,4.383,4.383,0,0,0-1.429.9,5.649,5.649,0,0,0-.994,1.3,7.942,7.942,0,0,0-.66,1.5,12.605,12.605,0,0,0-.392,1.6,14.974,14.974,0,0,0-.2,1.6c-.034.483-.05.985-.05,1.492A4.194,4.194,0,0,0,1.246,259.2a4.484,4.484,0,0,0,3.21,1.171H16.618a4.484,4.484,0,0,0,3.21-1.171,4.193,4.193,0,0,0,1.246-3.173c0-.509-.017-1.011-.051-1.492Zm0,0" transform="translate(0 -235.115)" fill="#464646"/>
</svg>
