<svg xmlns="http://www.w3.org/2000/svg" width="29.999" height="21.679" viewBox="0 0 29.999 21.679">
  <g id="youtube" transform="translate(0.001 -0.5)">
    <path id="Path_17488" data-name="Path 17488" d="M15,22.179h-.008c-.905-.006-8.908-.079-11.175-.692a4.637,4.637,0,0,1-3.262-3.26A34.029,34.029,0,0,1,0,11.369a34.665,34.665,0,0,1,.55-6.91l0-.006A4.734,4.734,0,0,1,3.811,1.171l.012,0C6.064.578,14.082.506,14.989.5h.016c.907.006,8.931.079,11.178.693a4.636,4.636,0,0,1,3.258,3.255,33.012,33.012,0,0,1,.552,6.946,34.12,34.12,0,0,1-.55,6.848l0,.006a4.637,4.637,0,0,1-3.264,3.261l-.006,0c-2.241.589-10.26.661-11.167.667H15ZM2.816,5.06a33.532,33.532,0,0,0-.471,6.293v.031a31.5,31.5,0,0,0,.471,6.235,2.285,2.285,0,0,0,1.609,1.6c1.673.453,8.191.595,10.573.612,2.388-.017,8.916-.155,10.576-.59a2.287,2.287,0,0,0,1.606-1.6,31.615,31.615,0,0,0,.471-6.235c0-.012,0-.025,0-.037a30.511,30.511,0,0,0-.469-6.3v0a2.287,2.287,0,0,0-1.61-1.607C23.913,3,17.385,2.86,15,2.844,12.611,2.86,6.09,3,4.424,3.433A2.351,2.351,0,0,0,2.816,5.06Zm25.5,12.884h0Zm-16.3-1.859V6.593l8.2,4.746Zm0,0" transform="translate(0)" fill="#58c5c7"/>
  </g>
</svg>
